# Blender 3.3.1
# www.blender.org
mtllib enemy.mtl
o 立方体.003
v -0.307449 0.024023 -0.321114
v -0.307448 0.660980 -0.321114
v 0.329485 0.024023 -0.315678
v 0.329485 0.660980 -0.315678
v -0.312884 0.024023 0.315820
v -0.312884 0.660980 0.315820
v 0.324049 0.024023 0.321255
v 0.324049 0.660980 0.321256
v -0.315749 1.306818 -0.321185
v -0.315749 1.943774 -0.321185
v 0.321185 1.306818 -0.315749
v 0.321185 1.943774 -0.315749
v -0.321185 1.306817 0.315749
v -0.321184 1.943774 0.315749
v 0.315749 1.306817 0.321185
v 0.315749 1.943774 0.321185
v -0.943189 0.653309 -0.326540
v -0.943189 1.290266 -0.326540
v -0.306256 0.653309 -0.321104
v -0.306256 1.290266 -0.321103
v -0.948625 0.653309 0.310394
v -0.948625 1.290266 0.310394
v -0.311692 0.653309 0.315830
v -0.311692 1.290266 0.315830
v 0.339009 0.653309 -0.315597
v 0.339009 1.290266 -0.315597
v 0.975943 0.653309 -0.310161
v 0.975943 1.290266 -0.310161
v 0.333573 0.653309 0.321337
v 0.333573 1.290266 0.321337
v 0.970507 0.653309 0.326773
v 0.970507 1.290265 0.326773
vn 0.0085 -0.0000 -1.0000
vn 1.0000 -0.0000 0.0085
vn -0.0085 -0.0000 1.0000
vn -1.0000 -0.0000 -0.0085
vn -0.0000 -1.0000 -0.0000
vn -0.0000 1.0000 -0.0000
vt 0.375000 0.000000
vt 0.375000 1.000000
vt 0.125000 0.750000
vt 0.625000 0.000000
vt 0.625000 1.000000
vt 0.875000 0.750000
vt 0.375000 0.250000
vt 0.125000 0.500000
vt 0.625000 0.250000
vt 0.875000 0.500000
vt 0.375000 0.750000
vt 0.625000 0.750000
vt 0.375000 0.500000
vt 0.625000 0.500000
vt 0.375000 0.000000
vt 0.375000 1.000000
vt 0.125000 0.750000
vt 0.625000 0.000000
vt 0.625000 1.000000
vt 0.875000 0.750000
vt 0.375000 0.250000
vt 0.125000 0.500000
vt 0.625000 0.250000
vt 0.875000 0.500000
vt 0.375000 0.750000
vt 0.625000 0.750000
vt 0.375000 0.500000
vt 0.625000 0.500000
vt 0.375000 0.000000
vt 0.375000 1.000000
vt 0.125000 0.750000
vt 0.625000 0.000000
vt 0.625000 1.000000
vt 0.875000 0.750000
vt 0.375000 0.250000
vt 0.125000 0.500000
vt 0.625000 0.250000
vt 0.875000 0.500000
vt 0.375000 0.750000
vt 0.625000 0.750000
vt 0.375000 0.500000
vt 0.625000 0.500000
vt 0.375000 0.000000
vt 0.375000 1.000000
vt 0.125000 0.750000
vt 0.625000 0.000000
vt 0.625000 1.000000
vt 0.875000 0.750000
vt 0.375000 0.250000
vt 0.125000 0.500000
vt 0.625000 0.250000
vt 0.875000 0.500000
vt 0.375000 0.750000
vt 0.625000 0.750000
vt 0.375000 0.500000
vt 0.625000 0.500000
s 0
usemtl マテリアル.001
f 1/1/1 2/4/1 4/9/1 3/7/1
f 3/7/2 4/9/2 8/14/2 7/13/2
f 7/13/3 8/14/3 6/12/3 5/11/3
f 5/11/4 6/12/4 2/5/4 1/2/4
f 3/8/5 7/13/5 5/11/5 1/3/5
f 8/14/6 4/10/6 2/6/6 6/12/6
f 9/15/1 10/18/1 12/23/1 11/21/1
f 11/21/2 12/23/2 16/28/2 15/27/2
f 15/27/3 16/28/3 14/26/3 13/25/3
f 13/25/4 14/26/4 10/19/4 9/16/4
f 11/22/5 15/27/5 13/25/5 9/17/5
f 16/28/6 12/24/6 10/20/6 14/26/6
f 17/29/1 18/32/1 20/37/1 19/35/1
f 19/35/2 20/37/2 24/42/2 23/41/2
f 23/41/3 24/42/3 22/40/3 21/39/3
f 21/39/4 22/40/4 18/33/4 17/30/4
f 19/36/5 23/41/5 21/39/5 17/31/5
f 24/42/6 20/38/6 18/34/6 22/40/6
f 25/43/1 26/46/1 28/51/1 27/49/1
f 27/49/2 28/51/2 32/56/2 31/55/2
f 31/55/3 32/56/3 30/54/3 29/53/3
f 29/53/4 30/54/4 26/47/4 25/44/4
f 27/50/5 31/55/5 29/53/5 25/45/5
f 32/56/6 28/52/6 26/48/6 30/54/6
