# Blender 3.3.1
# www.blender.org
mtllib enemy2RightLeg.mtl
o Cube.005
v -0.009561 -0.058064 -0.028356
v -0.020982 -0.046929 -0.258184
v -0.172802 0.084030 -0.212141
v -0.172802 0.078343 -0.076000
v -0.025434 -0.156205 -0.072602
v -0.025434 -0.156205 -0.192902
v -0.196209 -0.074349 -0.192079
v -0.195036 -0.079323 -0.076938
v -0.096892 0.018550 -0.246528
v -0.096892 0.004572 -0.033352
v -0.114933 -0.113735 -0.237648
v -0.114346 -0.116222 -0.029612
v -0.052965 -0.307099 -0.101274
v -0.052965 -0.307099 -0.196751
v -0.195586 -0.259943 -0.196098
v -0.194160 -0.263738 -0.104713
v -0.127666 -0.282723 -0.232243
v -0.126953 -0.284621 -0.067175
v -0.055323 -0.411764 -0.132669
v -0.055323 -0.411764 -0.216298
v -0.174322 -0.432280 -0.215644
v -0.171370 -0.435059 -0.136108
v -0.109480 -0.421772 -0.251790
v -0.108004 -0.423161 -0.098570
v -0.081556 -0.539151 -0.183640
v -0.081556 -0.539151 -0.254909
v -0.192261 -0.527122 -0.254307
v -0.190349 -0.530335 -0.186812
v -0.132109 -0.534271 -0.287639
v -0.131154 -0.535878 -0.152195
v -0.089531 -0.635380 -0.195231
v -0.089531 -0.635380 -0.268303
v -0.216802 -0.621551 -0.267610
v -0.214604 -0.625245 -0.198877
v -0.147649 -0.629770 -0.305930
v -0.146550 -0.631617 -0.159081
v -0.122324 -0.770404 -0.191687
v -0.122324 -0.770404 -0.237512
v -0.202604 -0.769566 -0.237077
v -0.201007 -0.771737 -0.193973
v -0.158941 -0.770461 -0.261109
v -0.158142 -0.771546 -0.169016
v -0.114668 -0.875453 -0.165097
v -0.114668 -0.875453 -0.210923
v -0.188781 -0.874615 -0.210488
v -0.187184 -0.876786 -0.167384
v -0.158480 -0.875510 -0.234520
v -0.157681 -0.876596 -0.142426
v -0.121421 -0.972078 -0.141010
v -0.121421 -0.972078 -0.186835
v -0.216218 -0.971240 -0.186400
v -0.214620 -0.973411 -0.143296
v -0.158037 -0.976299 -0.222423
v -0.157238 -0.973221 -0.118339
v -0.157681 -0.942548 0.022951
v -0.125922 -0.941406 0.019796
v -0.187184 -0.942739 -0.021156
v -0.161932 -0.977385 0.048496
v -0.121421 -0.976242 0.044415
v -0.207610 -0.977575 0.002931
v -0.118044 -0.938695 -0.217722
v -0.111594 -0.938695 -0.153054
v -0.204033 -0.940028 -0.155340
v -0.205630 -0.937857 -0.217288
v -0.158259 -0.938753 -0.241319
v -0.111594 -0.958824 0.032371
v -0.204033 -0.960157 -0.000335
v -0.160288 -0.959967 0.044797
vn 0.2285 -0.4306 0.8731
vn 0.3395 -0.2298 0.9121
vn 0.3468 -0.2358 0.9078
vn 0.3453 -0.2346 0.9087
vn 0.9872 -0.1597 -0.0000
vn -0.4862 0.0077 -0.8738
vn -0.4861 0.0079 -0.8738
vn -0.4862 0.0079 -0.8738
vn -0.9892 0.1466 0.0067
vn -0.9901 0.1395 0.0161
vn -0.9900 0.1402 0.0152
vn 0.1787 -0.5100 -0.8414
vn -0.5171 -0.1493 0.8428
vn -0.4709 0.0952 0.8771
vn -0.9915 -0.1260 0.0324
vn 0.9997 -0.0225 -0.0000
vn 0.9838 -0.1795 -0.0000
vn -0.9999 -0.0041 0.0145
vn -0.9999 -0.0037 0.0154
vn -0.9999 -0.0059 0.0107
vn -0.4680 0.0070 -0.8837
vn 0.4159 -0.0538 -0.9078
vn 0.4145 -0.0525 -0.9085
vn 0.4221 -0.0598 -0.9046
vn -0.9844 0.1718 0.0369
vn -0.9845 0.1715 0.0360
vn -0.9840 0.1732 0.0419
vn 0.9794 -0.2017 -0.0000
vn -0.4932 0.0575 -0.8680
vn 0.5234 0.1450 -0.8396
vn 0.5231 0.1466 -0.8396
vn 0.5233 0.1456 -0.8396
vn -0.4568 -0.2556 0.8521
vn 0.5636 -0.2489 0.7876
vn -0.9685 0.2452 0.0436
vn -0.9684 0.2455 0.0442
vn -0.9692 0.2430 0.0396
vn 0.9966 -0.0826 -0.0000
vn -0.4044 0.4098 -0.8176
vn 0.5474 0.1521 -0.8229
vn -0.4997 -0.3273 0.8020
vn 0.4690 -0.4097 0.7824
vn -0.9955 -0.0902 0.0282
vn -0.9953 -0.0913 0.0323
vn -0.9954 -0.0910 0.0311
vn 0.9718 -0.2360 -0.0000
vn -0.4490 0.2380 -0.8613
vn 0.5469 0.0708 -0.8342
vn -0.5034 0.0188 0.8638
vn 0.5230 -0.1445 0.8400
vn -0.9920 -0.1228 0.0306
vn 0.9974 0.0727 -0.0000
vn -0.4737 -0.2209 -0.8525
vn -0.4740 -0.2184 -0.8530
vn -0.4737 -0.2213 -0.8524
vn 0.5158 -0.3076 -0.7996
vn -0.5053 -0.0185 0.8628
vn -0.5030 -0.0197 0.8641
vn -0.5037 -0.0193 0.8637
vn 0.5327 -0.1043 0.8398
vn 0.5343 -0.1038 0.8389
vn 0.5287 -0.1056 0.8422
vn -0.9465 0.3186 0.0511
vn -0.9467 0.3183 0.0502
vn -0.9473 0.3170 0.0460
vn 0.9593 -0.2824 -0.0000
vn -0.6033 -0.2694 -0.7507
vn 0.4662 -0.1850 -0.8651
vn -0.6352 0.1869 0.7494
vn 0.4501 0.2210 0.8652
vn 0.0319 -0.9995 -0.0000
vn -0.0681 -0.9972 0.0300
vn -0.4855 -0.5058 -0.7131
vn 0.6041 -0.5733 -0.5536
vn -0.6547 0.7496 0.0973
vn 0.8676 -0.4972 -0.0112
vn -0.6906 0.2120 0.6914
vn 0.0927 0.1985 0.9757
vn 0.0034 0.9289 0.3704
vn 0.0251 -0.9994 -0.0247
vn 0.0279 -0.9993 -0.0242
vn 0.0188 -0.9994 -0.0281
vn 0.0197 -0.9995 -0.0229
vn -0.4885 0.8105 0.3232
vn 0.1700 0.6649 0.7273
vn -0.5148 0.6992 0.4961
vn 0.7441 0.6641 0.0721
vn -0.9762 0.2104 0.0528
vn 0.5037 0.0941 -0.8587
vn -0.4391 0.2109 -0.8734
vn 0.9946 0.0295 -0.0992
vn -0.9641 0.2633 0.0341
vn 0.6357 0.7712 0.0317
vn 0.6627 0.7476 0.0446
vn 0.6764 0.7352 0.0433
vn -0.0317 0.0355 0.9989
vn 0.3384 -0.2289 0.9127
vn 0.9960 -0.0722 -0.0530
vn -0.4458 -0.0474 -0.8939
vn -0.9891 0.1470 0.0061
vn -0.1857 -0.0406 -0.9818
vn -0.5445 -0.1274 0.8290
vn -0.4459 0.0576 0.8932
vn -0.9910 -0.1336 0.0099
vn -0.9999 -0.0062 0.0099
vn -0.4826 0.0173 -0.8757
vn 0.4231 -0.0608 -0.9040
vn -0.9839 0.1733 0.0426
vn -0.4577 0.0442 -0.8880
vn 0.4700 0.1829 -0.8635
vn -0.5270 -0.2205 0.8208
vn 0.3739 -0.1560 0.9142
vn -0.9693 0.2428 0.0390
vn -0.4986 0.3526 -0.7919
vn 0.5231 0.1467 -0.8396
vn -0.4408 -0.3102 0.8423
vn 0.5521 -0.4479 0.7032
vn -0.9956 -0.0899 0.0270
vn -0.4925 -0.2280 -0.8399
vn 0.4980 -0.2993 -0.8139
vn -0.5060 -0.0181 0.8624
vn 0.5274 -0.1060 0.8430
vn -0.9425 0.3322 0.0360
vn 0.9771 -0.1890 -0.0975
vn -0.4740 -0.2180 -0.8531
vn 0.5303 -0.2058 -0.8224
vn -0.4979 0.1506 0.8540
vn 0.5128 0.2456 0.8226
vn 0.0868 -0.9958 0.0288
vn 0.0256 -0.9984 -0.0512
vn -0.4188 -0.4102 -0.8102
vn 0.4652 -0.3958 -0.7918
vn -0.9525 0.2776 0.1252
vn 0.9557 -0.2928 -0.0318
vn -0.6924 0.2679 0.6700
vn 0.2072 0.4746 0.8555
vn 0.1547 0.9275 0.3403
vn 0.0160 -0.9994 -0.0292
vn 0.0177 -0.9996 -0.0224
vn -0.3334 0.8594 0.3876
vn 0.0341 0.7795 0.6255
vn -0.4700 0.8261 0.3108
vn 0.9944 0.0642 0.0834
vn -0.9481 0.3155 0.0410
vn 0.4730 0.0692 -0.8783
vn -0.6178 0.0819 -0.7821
vn 0.9986 -0.0533 -0.0000
vn -0.9664 0.2523 0.0485
vn 0.5824 0.8128 0.0104
vn 0.6352 0.7714 0.0378
vn 0.6609 0.7498 0.0313
vt 0.499283 0.830736
vt 0.635409 0.334448
vt 0.586289 0.830761
vt 0.203062 0.351487
vt 0.137688 0.331682
vt 0.851228 0.874559
vt 0.902247 0.871765
vt 0.557639 0.361628
vt 0.639869 0.299599
vt 0.515452 0.798942
vt 0.560728 0.795992
vt 0.221613 0.393600
vt 0.856926 0.814533
vt 0.152246 0.390665
vt 0.570331 0.303402
vt 0.900025 0.812236
vt 0.169384 0.340892
vt 0.596431 0.344583
vt 0.181375 0.389455
vt 0.606287 0.299745
vt 0.525610 0.751536
vt 0.648095 0.244080
vt 0.561543 0.749196
vt 0.231682 0.449164
vt 0.852131 0.747353
vt 0.176541 0.453984
vt 0.886320 0.745638
vt 0.592902 0.240010
vt 0.199717 0.449615
vt 0.621450 0.240486
vt 0.658931 0.208309
vt 0.536409 0.715618
vt 0.770637 0.743689
vt 0.567883 0.713568
vt 0.242945 0.484218
vt 0.840904 0.687278
vt 0.204826 0.508777
vt 0.760366 0.806771
vt 0.870600 0.686160
vt 0.621199 0.184351
vt 0.740958 0.806771
vt 0.222562 0.493443
vt 0.644139 0.195778
vt 0.792286 0.750921
vt 0.773638 0.787662
vt 0.555160 0.675434
vt 0.663156 0.162054
vt 0.581982 0.673687
vt 0.247334 0.529409
vt 0.825446 0.651184
vt 0.207775 0.541585
vt 0.850656 0.649861
vt 0.623797 0.150326
vt 0.753286 0.763079
vt 0.226471 0.533168
vt 0.792286 0.791627
vt 0.647367 0.155186
vt 0.558788 0.643790
vt 0.377567 0.789450
vt 0.672169 0.127707
vt 0.586289 0.641999
vt 0.405046 0.789450
vt 0.256093 0.562769
vt 0.819785 0.614394
vt 0.210615 0.576766
vt 0.845440 0.612921
vt 0.626920 0.114224
vt 0.232108 0.567090
vt 0.654017 0.119811
vt 0.379526 0.747741
vt 0.055460 0.715464
vt 0.678506 0.075788
vt 0.396759 0.747741
vt 0.045184 0.701568
vt 0.265289 0.615775
vt 0.828075 0.562106
vt 0.237639 0.627308
vt 0.844158 0.561259
vt 0.651044 0.064606
vt 0.250659 0.619736
vt 0.667557 0.069601
vt 0.696516 0.039035
vt 0.031108 0.744655
vt 0.284066 0.652301
vt 0.020831 0.730759
vt 0.258536 0.662928
vt 0.105947 0.794528
vt 0.835654 0.525373
vt 0.671208 0.028700
vt 0.851737 0.524526
vt 0.266966 0.657319
vt 0.116568 0.793135
vt 0.377567 0.701568
vt 0.859917 0.527630
vt 0.041021 0.746675
vt 0.683053 0.031860
vt 0.258866 0.773701
vt 0.000000 0.755869
vt 0.258914 0.790933
vt 0.263932 0.701568
vt 0.844112 0.487274
vt 0.286598 0.788347
vt 0.286598 0.772242
vt 0.860194 0.486427
vt 0.270725 0.803515
vt 0.281440 0.692560
vt 0.269649 0.764303
vt 0.361258 0.732529
vt 0.920856 0.502835
vt 0.350126 0.728595
vt 0.055460 0.812091
vt 0.688936 0.000000
vt 0.905485 0.499835
vt 0.357820 0.746640
vt 0.271841 0.701568
vt 0.343591 0.741734
vt 0.259658 0.704094
vt 0.914744 0.484884
vt 0.376931 0.749590
vt 0.285371 0.717553
vt 0.250025 0.801644
vt 0.290638 0.674073
vt 0.002012 0.740474
vt 0.248059 0.777488
vt 0.015742 0.760845
vt 0.855830 0.499729
vt 0.260480 0.686680
vt 0.832672 0.500678
vt 0.274773 0.678563
vt 0.116568 0.816291
vt 0.051690 0.820948
vt 0.252644 0.708355
vt 0.342495 0.733889
vt 0.377567 0.742794
vt 0.913679 0.491599
vt 0.359177 0.740031
s 1
usemtl Material.009
f 12/20/1 5/9/1 1/2/1
f 18/30/2 13/22/3 5/9/4
f 1/1/5 5/10/5 6/11/5
f 9/17/6 11/19/7 7/14/8
f 7/13/9 8/16/10 4/7/11
f 2/4/12 6/12/12 11/19/12
f 16/28/13 18/30/13 12/20/13
f 8/15/14 12/20/14 10/18/14
f 15/25/15 21/36/15 22/39/15
f 19/32/16 20/34/16 14/23/16
f 13/21/17 14/23/17 6/11/17
f 7/13/18 15/25/19 16/27/20
f 11/19/21 17/29/21 15/26/21
f 6/12/22 14/24/23 17/29/24
f 21/36/25 27/50/26 28/52/27
f 25/46/28 26/48/28 20/34/28
f 17/29/29 23/42/29 21/37/29
f 14/24/30 20/35/31 23/42/32
f 22/40/33 24/43/33 18/30/33
f 24/43/34 19/31/34 13/22/34
f 27/50/35 33/64/36 34/66/37
f 31/58/38 32/61/38 26/48/38
f 29/55/39 27/51/39 21/37/39
f 26/49/40 29/55/40 23/42/40
f 22/40/41 28/53/41 30/57/41
f 30/56/42 25/45/42 19/33/42
f 39/76/43 40/78/44 34/66/45
f 31/59/46 37/70/46 38/73/46
f 29/55/47 35/68/47 33/65/47
f 32/63/48 35/68/48 29/55/48
f 28/53/49 34/67/49 36/69/49
f 36/69/50 31/60/50 25/47/50
f 45/88/51 46/90/51 40/78/51
f 37/71/52 43/83/52 44/85/52
f 41/80/53 39/77/54 33/65/55
f 32/63/56 38/75/56 41/80/56
f 40/79/57 42/81/58 36/69/59
f 36/69/60 42/81/61 37/72/62
f 51/101/63 52/104/64 63/126/65
f 62/124/66 49/97/66 50/99/66
f 47/91/67 45/86/67 39/77/67
f 38/75/68 44/84/68 47/91/68
f 46/89/69 48/96/69 42/81/69
f 42/81/70 48/96/70 43/82/70
f 50/99/71 49/97/71 54/107/71
f 51/102/72 53/105/72 54/107/72
f 53/106/73 51/100/73 64/127/73
f 61/121/74 50/99/74 53/105/74
f 63/126/75 67/135/75 57/113/75
f 66/132/76 59/117/76 49/97/76
f 60/119/77 58/114/77 68/136/77
f 68/136/78 58/114/78 59/116/78
f 48/93/79 55/108/79 56/110/79
f 54/107/80 58/115/81 60/120/82
f 59/117/83 58/115/81 54/107/80
f 57/113/84 55/109/84 48/94/84
f 68/136/85 66/133/85 56/110/85
f 67/134/86 68/136/86 55/108/86
f 56/111/87 66/131/87 62/125/87
f 52/104/88 60/118/88 67/135/88
f 61/122/89 65/129/89 47/91/89
f 65/129/90 64/127/90 45/86/90
f 43/83/91 62/125/91 61/123/91
f 64/128/92 63/126/92 46/90/92
f 10/18/93 9/17/94 4/8/95
f 10/18/96 12/20/96 1/2/96
f 12/20/97 18/30/2 5/9/4
f 2/3/98 1/1/98 6/11/98
f 3/5/99 9/17/99 7/14/99
f 3/6/100 7/13/9 4/7/11
f 9/17/101 2/4/101 11/19/101
f 8/15/102 16/28/102 12/20/102
f 4/8/103 8/15/103 10/18/103
f 16/27/104 15/25/104 22/39/104
f 13/21/16 19/32/16 14/23/16
f 5/10/17 13/21/17 6/11/17
f 8/16/105 7/13/18 16/27/20
f 7/14/8 11/19/7 15/26/106
f 11/19/107 6/12/22 17/29/24
f 22/39/108 21/36/25 28/52/27
f 19/32/28 25/46/28 20/34/28
f 15/26/109 17/29/109 21/37/109
f 17/29/110 14/24/110 23/42/110
f 16/28/111 22/40/111 18/30/111
f 18/30/112 24/43/112 13/22/112
f 28/52/113 27/50/35 34/66/37
f 25/46/38 31/58/38 26/48/38
f 23/41/114 29/54/114 21/38/114
f 20/35/31 26/49/115 23/42/32
f 24/43/116 22/40/116 30/57/116
f 24/44/117 30/56/117 19/33/117
f 33/64/118 39/76/43 34/66/45
f 32/62/46 31/59/46 38/73/46
f 27/51/47 29/55/47 33/65/47
f 26/49/48 32/63/48 29/55/48
f 30/57/49 28/53/49 36/69/49
f 30/57/50 36/69/50 25/47/50
f 39/76/51 45/88/51 40/78/51
f 38/74/52 37/71/52 44/85/52
f 35/68/119 41/80/119 33/65/119
f 35/68/120 32/63/120 41/80/120
f 34/67/121 40/79/57 36/69/59
f 31/60/122 36/69/60 37/72/62
f 64/128/123 51/101/123 63/126/123
f 61/123/124 62/125/124 50/98/124
f 41/80/53 47/91/125 39/77/54
f 41/80/126 38/75/126 47/91/126
f 40/79/127 46/89/127 42/81/127
f 37/72/128 42/81/128 43/82/128
f 53/105/129 50/99/129 54/107/129
f 52/103/130 51/102/130 54/107/130
f 65/129/131 53/106/131 64/127/131
f 65/129/132 61/122/132 53/106/132
f 46/90/133 63/126/133 57/113/133
f 62/124/134 66/132/134 49/97/134
f 67/134/135 60/119/135 68/136/135
f 66/133/136 68/136/136 59/116/136
f 43/83/137 48/95/137 56/111/137
f 52/103/138 54/107/80 60/120/82
f 49/97/139 59/117/83 54/107/80
f 46/89/140 57/112/140 48/96/140
f 55/108/141 68/136/141 56/110/141
f 57/113/142 67/135/142 55/109/142
f 43/83/143 56/111/143 62/125/143
f 63/126/65 52/104/64 67/135/144
f 44/84/145 61/122/145 47/91/145
f 47/92/146 65/130/146 45/87/146
f 44/85/147 43/83/147 61/123/147
f 45/88/148 64/128/148 46/90/148
f 10/18/93 1/2/149 2/4/150
f 2/4/150 9/17/94 10/18/93
f 9/17/94 3/6/151 4/8/95
