# Blender 3.3.1
# www.blender.org
mtllib player.mtl
o 立方体.001
v 0.257420 0.007388 -0.421398
v 0.257420 0.379739 -0.421398
v 1.280092 0.007388 -0.421398
v 1.280092 0.379739 -0.421398
v 0.257420 0.007388 0.421398
v 0.257420 0.379739 0.421398
v 1.280092 0.007388 0.421398
v 1.280092 0.379739 0.421398
v 0.346890 0.964023 0.414988
v 0.346890 0.134048 0.414988
v -0.483085 0.964023 0.414988
v -0.483085 0.134048 0.414988
v 0.346890 0.964023 -0.414988
v 0.346890 0.134048 -0.414988
v -0.483085 0.964023 -0.414988
v -0.483085 0.134048 -0.414988
v -1.512464 0.189407 -0.421398
v -1.512464 0.780616 -0.421398
v -0.489792 0.189407 -0.421398
v -0.489792 0.780616 -0.421398
v -1.512464 0.189407 0.421398
v -1.512464 0.780616 0.421398
v -0.489792 0.189407 0.421398
v -0.489792 0.780616 0.421398
v 0.440095 -0.915344 -0.266367
v 0.440095 -0.382609 -0.266367
v 0.666342 -0.915344 -0.266367
v 0.666342 -0.382609 -0.266367
v 0.440095 -0.915344 0.266367
v 0.440095 -0.382609 0.266367
v 0.666342 -0.915344 0.266367
v 0.666342 -0.382609 0.266367
v 0.656851 -0.405371 -0.266367
v 0.260748 -0.408745 -0.266367
v 0.654924 -0.179135 -0.266367
v 0.258821 -0.182509 -0.266367
v 0.656851 -0.405371 0.266367
v 0.260748 -0.408745 0.266367
v 0.654924 -0.179135 0.266367
v 0.258821 -0.182509 0.266367
v -0.510267 -0.240712 -0.385207
v -0.510267 0.193335 -0.385207
v 0.260147 -0.240712 -0.385207
v 0.260147 0.193335 -0.385207
v -0.510267 -0.240712 0.385207
v -0.510267 0.193335 0.385207
v 0.260147 -0.240712 0.385207
v 0.260147 0.193335 0.385207
v -0.502817 -0.585691 -0.156357
v -0.502817 -0.230049 -0.156357
v -0.330199 -0.585691 -0.156357
v -0.330199 -0.230049 -0.156357
v -0.502817 -0.585691 0.156357
v -0.502817 -0.230049 0.156357
v -0.330199 -0.585691 0.156357
v -0.330199 -0.230049 0.156357
v -0.122555 -0.960284 -0.251162
v -0.122555 -0.376529 -0.251162
v 0.261033 -0.960284 -0.251162
v 0.261033 -0.376529 -0.251162
v -0.122555 -0.960284 0.251162
v -0.122555 -0.376529 0.251162
v 0.261033 -0.960284 0.251162
v 0.261033 -0.376529 0.251162
v -0.326467 -0.781376 -0.180873
v -0.326467 -0.369970 -0.180873
v -0.126783 -0.781376 -0.180873
v -0.126783 -0.369970 -0.180873
v -0.326467 -0.781376 0.180873
v -0.326467 -0.369970 0.180873
v -0.126783 -0.781376 0.180873
v -0.126783 -0.369970 0.180873
v 0.348038 0.559651 -0.156357
v 0.348038 0.965024 -0.156357
v 0.470485 0.559651 -0.156357
v 0.470485 0.965024 -0.156357
v 0.348038 0.559651 0.156357
v 0.348038 0.965024 0.156357
v 0.470485 0.559651 0.156357
v 0.470485 0.965024 0.156357
v -0.110433 0.166638 -0.156357
v -0.110433 0.572011 -0.156357
v 0.063444 0.166638 -0.156357
v 0.063444 0.572011 -0.156357
v -0.110433 0.166638 0.156357
v -0.110433 0.572011 0.156357
v 0.063444 0.166638 0.156357
v 0.063444 0.572011 0.156357
v -0.110433 0.166638 0.237065
v -0.110433 0.572011 0.237065
v 0.063444 0.166638 0.237065
v 0.063444 0.572011 0.237065
v -0.110433 0.166638 0.549778
v -0.110433 0.572011 0.549778
v 0.063444 0.166638 0.549778
v 0.063444 0.572011 0.549778
v 0.262504 0.166638 0.237065
v 0.262504 0.572011 0.237065
v 0.436381 0.166638 0.237065
v 0.436381 0.572011 0.237065
v 0.262504 0.166638 0.549778
v 0.262504 0.572011 0.549778
v 0.436381 0.166638 0.549778
v 0.436381 0.572011 0.549778
vn -0.0000 -0.0000 -1.0000
vn 1.0000 -0.0000 -0.0000
vn -0.0000 -0.0000 1.0000
vn -1.0000 -0.0000 -0.0000
vn -0.0000 -1.0000 -0.0000
vn -0.0000 1.0000 -0.0000
vn -0.0085 1.0000 -0.0000
vn 0.0085 -1.0000 -0.0000
vn 1.0000 0.0085 -0.0000
vn -1.0000 -0.0085 -0.0000
vt 0.283364 0.540769
vt 0.425046 0.540769
vt 0.806916 0.599174
vt 0.283364 0.682451
vt 0.283364 0.540769
vt 0.806916 0.315811
vt 0.141682 0.540769
vt 0.677402 0.787808
vt 0.665235 0.599174
vt 0.141682 0.682451
vt 0.535721 0.787808
vt 0.665235 0.315811
vt 0.000000 0.540769
vt 0.425046 0.682451
vt 0.806916 0.457493
vt 0.000000 0.682451
vt 0.283364 0.682451
vt 0.806916 0.457493
vt 0.677402 0.646126
vt 0.141682 0.540769
vt 0.665235 0.457493
vt 0.535721 0.646126
vt 0.141682 0.682451
vt 0.665235 0.457493
vt 0.213468 0.821978
vt 0.394039 0.315811
vt 0.139527 0.315811
vt 0.394506 0.762892
vt 0.394039 0.000000
vt 0.139527 0.000000
vt 0.328453 0.821978
vt 0.139527 0.315811
vt 0.279053 0.315811
vt 0.139527 0.000000
vt 0.509491 0.762892
vt 0.279053 0.000000
vt 0.213468 0.682451
vt 0.394039 0.315811
vt 0.279053 0.315811
vt 0.394039 0.000000
vt 0.394506 0.902418
vt 0.279053 0.000000
vt 0.328453 0.682451
vt 0.000000 0.315811
vt 0.509024 0.315811
vt 0.000000 0.000000
vt 0.509024 0.000000
vt 0.509491 0.902418
vt 0.535721 0.315811
vt 0.252357 0.315811
vt 0.792388 0.141682
vt 0.535721 0.540769
vt 0.252357 0.540769
vt 0.792388 0.141682
vt 0.394039 0.315811
vt 0.650706 0.000000
vt 0.650706 0.141682
vt 0.394039 0.540769
vt 0.650706 0.224959
vt 0.650706 0.141682
vt 0.000000 0.315811
vt 0.394039 0.315811
vt 0.792388 0.000000
vt 0.000000 0.540769
vt 0.394039 0.540769
vt 0.792388 0.283364
vt 0.509024 0.000000
vt 0.141682 0.315811
vt 0.650706 0.000000
vt 0.509024 0.224959
vt 0.141682 0.540769
vt 0.650706 0.283364
vt 0.983036 0.000000
vt 0.766960 0.646126
vt 0.793234 0.938392
vt 0.983036 0.202709
vt 0.766960 0.848835
vt 0.761889 0.848835
vt 0.951692 0.000000
vt 0.766960 0.646126
vt 0.761889 0.938392
vt 0.951692 0.202709
vt 0.766960 0.848835
vt 0.730545 0.848835
vt 0.640861 0.787808
vt 0.856518 0.646126
vt 0.793234 0.848835
vt 0.640861 0.990517
vt 0.856518 0.848835
vt 0.761889 0.938392
vt 0.677402 0.646126
vt 0.672205 0.787808
vt 0.761889 0.848835
vt 0.677402 0.848835
vt 0.672205 0.990517
vt 0.730545 0.938392
vt 0.109759 0.933694
vt 0.595109 0.314516
vt 0.054879 0.934807
vt 0.649987 0.314516
vt 0.299552 0.821978
vt 0.109759 0.847609
vt 0.000000 0.847609
vt 0.509024 0.314516
vt 0.054879 0.848722
vt 0.054879 0.847609
vt 0.213468 0.821978
vt 0.164639 0.848723
vt 0.595109 0.224959
vt 0.109759 0.847609
vt 0.649987 0.224959
vt 0.299552 0.911535
vt 0.000000 0.937166
vt 0.164639 0.934808
vt 0.509024 0.224959
vt 0.054879 0.937166
vt 0.109759 0.933694
vt 0.213468 0.911535
vt 0.106734 0.682451
vt 0.535721 0.480968
vt 0.899122 0.129514
vt 0.106734 0.847609
vt 0.535721 0.646126
vt 0.899122 0.129514
vt 0.000000 0.682451
vt 0.665235 0.315811
vt 0.792388 0.129514
vt 0.000000 0.847609
vt 0.665235 0.480968
vt 0.792388 0.129514
vt 0.106734 0.682451
vt 0.665235 0.480968
vt 0.899122 0.000000
vt 0.106734 0.847609
vt 0.665235 0.646126
vt 0.899122 0.259028
vt 0.535721 0.315811
vt 0.213468 0.682451
vt 0.792388 0.000000
vt 0.535721 0.480968
vt 0.213468 0.847609
vt 0.792388 0.259028
vt 0.188554 0.847609
vt 0.920872 0.315811
vt 0.533406 0.901833
vt 0.188554 0.982933
vt 0.920872 0.451135
vt 0.844813 0.901405
vt 0.164639 0.847609
vt 0.969901 0.646126
vt 0.509491 0.901833
vt 0.164639 0.982933
vt 0.969901 0.781450
vt 0.820898 0.901405
vt 0.188554 0.847609
vt 0.973442 0.315811
vt 0.533406 0.849263
vt 0.188554 0.982933
vt 0.973442 0.451135
vt 0.844813 0.953975
vt 0.917331 0.646126
vt 0.212468 0.847609
vt 0.509491 0.849263
vt 0.917331 0.781450
vt 0.212468 0.982933
vt 0.820898 0.953975
vt 0.860059 0.315811
vt 0.141682 0.315811
vt 0.730545 0.933280
vt 0.141682 0.537933
vt 0.860059 0.537933
vt 0.806916 0.315811
vt 0.509491 0.540769
vt 0.677402 0.933280
vt 0.509491 0.762891
vt 0.806916 0.537933
vt 0.328453 0.682451
vt 0.226127 0.315811
vt 0.730545 0.848835
vt 0.328453 0.904573
vt 0.226127 0.537933
vt 0.860059 0.622378
vt 0.425046 0.540769
vt 0.381596 0.682451
vt 0.677402 0.848835
vt 0.425046 0.762891
vt 0.381596 0.904573
vt 0.806916 0.622378
vt 0.327217 0.821978
vt 0.860059 0.315811
vt 0.820898 0.909648
vt 0.327217 0.978520
vt 0.860059 0.472353
vt 0.409260 0.682451
vt 0.299552 0.821978
vt 0.917331 0.646126
vt 0.793234 0.909648
vt 0.299552 0.978520
vt 0.917331 0.802668
vt 0.381596 0.682451
vt 0.961658 0.802669
vt 0.920872 0.315811
vt 0.820898 0.848835
vt 0.961658 0.959211
vt 0.920872 0.472353
vt 0.409260 0.743264
vt 0.856518 0.646126
vt 0.989322 0.802669
vt 0.793234 0.848835
vt 0.856518 0.802668
vt 0.989322 0.959211
vt 0.381596 0.743264
vt 1.000000 0.154247
vt 0.588291 0.787808
vt 0.526455 0.954403
vt 1.000000 0.308494
vt 0.588291 0.942055
vt 0.411469 0.902418
vt 0.983036 0.154247
vt 0.588291 0.787808
vt 0.509491 0.954403
vt 0.983036 0.308494
vt 0.588291 0.942055
vt 0.394506 0.902418
vt 0.983036 0.000000
vt 0.640861 0.787808
vt 0.526455 0.901833
vt 0.983036 0.154247
vt 0.640861 0.942055
vt 0.411469 0.954988
vt 0.535721 0.787808
vt 1.000000 0.000000
vt 0.509491 0.901833
vt 0.535721 0.942055
vt 1.000000 0.154247
vt 0.394506 0.954988
vt 0.533580 0.695016
vt 0.860059 0.472353
vt 0.864655 0.311598
vt 0.533580 0.849263
vt 0.860059 0.626600
vt 0.888744 0.259028
vt 0.509491 0.695016
vt 0.909088 0.802668
vt 0.840566 0.311598
vt 0.509491 0.849263
vt 0.909088 0.956915
vt 0.864655 0.259028
vt 0.969901 0.646126
vt 0.912629 0.472353
vt 0.864655 0.259028
vt 0.969901 0.800373
vt 0.912629 0.626600
vt 0.888744 0.311598
vt 0.856518 0.802668
vt 0.993990 0.646126
vt 0.840566 0.259028
vt 0.856518 0.956915
vt 0.993990 0.800373
vt 0.864655 0.311598
vt 0.989288 0.472353
vt 0.899122 0.154247
vt 0.816477 0.311598
vt 0.989288 0.626600
vt 0.899122 0.308494
vt 0.840566 0.259028
vt 0.965199 0.472353
vt 0.792388 0.311598
vt 0.965199 0.626600
vt 0.816477 0.259028
vt 0.973442 0.315811
vt 0.951692 0.154247
vt 0.816477 0.259028
vt 0.973442 0.470058
vt 0.951692 0.308494
vt 0.840566 0.311598
vt 0.912629 0.472353
vt 0.997531 0.315811
vt 0.792388 0.259028
vt 0.912629 0.626600
vt 0.997531 0.470058
vt 0.816477 0.311598
vt 0.533580 0.540769
vt 0.899122 0.000000
vt 0.250216 0.522628
vt 0.533580 0.695016
vt 0.899122 0.154247
vt 0.844987 0.848835
vt 0.509491 0.540769
vt 0.961658 0.802668
vt 0.226127 0.522628
vt 0.509491 0.695016
vt 0.961658 0.956915
vt 0.820898 0.848835
vt 0.226127 0.315811
vt 0.951692 0.000000
vt 0.250216 0.470058
vt 0.226127 0.470058
vt 0.951692 0.154247
vt 0.844987 0.901405
vt 0.909088 0.802668
vt 0.250216 0.315811
vt 0.226127 0.470058
vt 0.909088 0.956915
vt 0.250216 0.470058
vt 0.820898 0.901405
s 0
usemtl Material.001
f 1/1/1 2/4/1 4/10/1 3/7/1
f 3/8/2 4/11/2 8/22/2 7/19/2
f 7/20/3 8/23/3 6/16/3 5/13/3
f 5/14/4 6/17/4 2/5/4 1/2/4
f 3/9/5 7/21/5 5/15/5 1/3/5
f 8/24/6 4/12/6 2/6/6 6/18/6
f 9/25/6 13/37/6 15/43/6 11/31/6
f 12/34/4 11/32/4 15/44/4 16/46/4
f 16/47/1 15/45/1 13/38/1 14/40/1
f 14/41/5 10/28/5 12/35/5 16/48/5
f 10/29/3 9/26/3 11/33/3 12/36/3
f 14/42/2 13/39/2 9/27/2 10/30/2
f 17/49/1 18/52/1 20/58/1 19/55/1
f 19/56/2 20/59/2 24/70/2 23/67/2
f 23/68/3 24/71/3 22/64/3 21/61/3
f 21/62/4 22/65/4 18/53/4 17/50/4
f 19/57/5 23/69/5 21/63/5 17/51/5
f 24/72/6 20/60/6 18/54/6 22/66/6
f 25/73/1 26/76/1 28/82/1 27/79/1
f 27/80/2 28/83/2 32/94/2 31/91/2
f 31/92/3 32/95/3 30/88/3 29/85/3
f 29/86/4 30/89/4 26/77/4 25/74/4
f 27/81/5 31/93/5 29/87/5 25/75/5
f 32/96/6 28/84/6 26/78/6 30/90/6
f 33/97/1 34/99/1 36/105/1 35/102/1
f 35/103/7 36/106/7 40/116/7 39/113/7
f 39/114/3 40/117/3 38/110/3 37/108/3
f 37/109/8 38/111/8 34/100/8 33/98/8
f 35/104/9 39/115/9 37/109/9 33/98/9
f 40/118/10 36/107/10 34/101/10 38/112/10
f 41/119/1 42/122/1 44/128/1 43/125/1
f 43/126/2 44/129/2 48/140/2 47/137/2
f 47/138/3 48/141/3 46/134/3 45/131/3
f 45/132/4 46/135/4 42/123/4 41/120/4
f 43/127/5 47/139/5 45/133/5 41/121/5
f 48/142/6 44/130/6 42/124/6 46/136/6
f 49/143/1 50/146/1 52/152/1 51/149/1
f 51/150/2 52/153/2 56/164/2 55/161/2
f 55/162/3 56/165/3 54/158/3 53/155/3
f 53/156/4 54/159/4 50/147/4 49/144/4
f 51/151/5 55/163/5 53/157/5 49/145/5
f 56/166/6 52/154/6 50/148/6 54/160/6
f 57/167/1 58/171/1 60/176/1 59/172/1
f 59/173/2 60/175/2 64/186/2 63/183/2
f 63/184/3 64/187/3 62/180/3 61/177/3
f 61/178/4 62/181/4 58/170/4 57/168/4
f 59/174/5 63/185/5 61/179/5 57/169/5
f 64/188/6 60/176/6 58/171/6 62/182/6
f 65/189/1 66/192/1 68/198/1 67/195/1
f 67/196/2 68/199/2 72/210/2 71/207/2
f 71/208/3 72/211/3 70/204/3 69/201/3
f 69/202/4 70/205/4 66/193/4 65/190/4
f 67/197/5 71/209/5 69/203/5 65/191/5
f 72/212/6 68/200/6 66/194/6 70/206/6
f 73/213/1 74/216/1 76/222/1 75/219/1
f 75/220/2 76/223/2 80/234/2 79/231/2
f 79/232/3 80/235/3 78/228/3 77/225/3
f 77/226/4 78/229/4 74/217/4 73/214/4
f 75/221/5 79/233/5 77/227/5 73/215/5
f 80/236/6 76/224/6 74/218/6 78/230/6
f 81/237/1 82/240/1 84/246/1 83/243/1
f 83/244/2 84/247/2 88/258/2 87/255/2
f 87/256/3 88/259/3 86/252/3 85/249/3
f 85/250/4 86/253/4 82/241/4 81/238/4
f 83/245/5 87/257/5 85/251/5 81/239/5
f 88/260/6 84/248/6 82/242/6 86/254/6
f 89/261/1 90/264/1 92/269/1 91/267/1
f 91/267/2 92/269/2 96/280/2 95/277/2
f 95/278/3 96/281/3 94/274/3 93/271/3
f 93/272/4 94/275/4 90/265/4 89/262/4
f 91/268/5 95/279/5 93/273/5 89/263/5
f 96/282/6 92/270/6 90/266/6 94/276/6
f 97/283/1 98/286/1 100/292/1 99/289/1
f 99/290/2 100/293/2 104/304/2 103/301/2
f 103/302/3 104/305/3 102/298/3 101/295/3
f 101/296/4 102/299/4 98/287/4 97/284/4
f 99/291/5 103/303/5 101/297/5 97/285/5
f 104/306/6 100/294/6 98/288/6 102/300/6
