# Blender 3.3.1
# www.blender.org
mtllib enemy2Head.mtl
o Cube.003
v 0.088673 0.881281 -0.153350
v 0.064724 0.878541 -0.237989
v 0.069773 0.984134 -0.153350
v 0.078681 0.880901 -0.060846
v 0.068818 0.779688 -0.117953
v 0.061699 0.774622 -0.060444
v 0.060060 0.971973 -0.097414
v 0.057280 0.796838 -0.183442
v 0.047742 0.954143 -0.221872
v 0.074690 0.738075 -0.195758
v 0.074690 0.738075 -0.135455
v 0.000000 0.868163 -0.255713
v -0.088673 0.881281 -0.153350
v 0.000000 0.880901 -0.030011
v 0.000000 0.747336 -0.117953
v 0.000000 1.008960 -0.153350
v 0.000000 0.973209 -0.233837
v -0.064724 0.878541 -0.237989
v 0.000000 0.805950 -0.223787
v -0.069773 0.984134 -0.153350
v -0.078681 0.880901 -0.060846
v -0.068818 0.779688 -0.117953
v 0.000000 0.992137 -0.078192
v 0.000000 0.750640 -0.036461
v -0.061699 0.774622 -0.060444
v -0.060060 0.971973 -0.097414
v -0.057280 0.796838 -0.183442
v -0.047742 0.954143 -0.221872
v 0.000000 0.723660 -0.239751
v -0.074690 0.738075 -0.195758
v -0.074690 0.738075 -0.135455
v 0.000000 0.723660 -0.108845
vn 0.3106 0.1938 -0.9306
vn 0.4314 -0.5278 -0.7317
vn 0.9254 0.2655 -0.2704
vn 0.9625 0.1769 0.2056
vn 0.9818 -0.1563 0.1075
vn 0.9818 -0.1565 0.1078
vn 0.9822 -0.1554 0.1058
vn 0.9356 -0.2644 -0.2341
vn 0.3329 0.4092 0.8495
vn 0.3773 -0.0458 0.9249
vn 0.1700 -0.3616 0.9167
vn 0.4253 -0.9047 -0.0270
vn 0.3694 0.9068 0.2030
vn 0.2974 0.8358 -0.4615
vn 0.9588 0.2841 -0.0000
vn 0.4761 0.1675 -0.8633
vn -0.2182 0.2501 -0.9433
vn -0.4314 -0.5278 -0.7317
vn -0.9147 0.1681 -0.3676
vn -0.9652 0.2396 0.1052
vn -0.9822 -0.1553 0.1056
vn -0.9818 -0.1565 0.1078
vn -0.9818 -0.1563 0.1075
vn -0.9324 -0.2556 -0.2556
vn -0.3928 0.3655 0.8439
vn -0.3643 -0.0547 0.9297
vn -0.1700 -0.3616 0.9167
vn -0.3747 -0.9264 0.0376
vn -0.3242 0.9111 0.2544
vn -0.4229 0.8281 -0.3678
vn -0.0000 -1.0000 -0.0000
vn -0.1895 -0.9819 -0.0000
vn -0.9588 0.2841 -0.0000
vn -0.4761 0.1675 -0.8633
vn 0.2182 0.2501 -0.9433
vn 0.3021 -0.4352 -0.8481
vn 0.9147 0.1681 -0.3676
vn 0.9652 0.2396 0.1052
vn 0.9822 -0.1552 0.1055
vn 0.9324 -0.2556 -0.2556
vn 0.3928 0.3655 0.8439
vn 0.3643 -0.0547 0.9297
vn 0.2546 0.3472 0.9026
vn 0.3747 -0.9264 0.0376
vn 0.3242 0.9111 0.2544
vn 0.4229 0.8281 -0.3679
vn 0.9744 0.1889 -0.1222
vn 0.5783 0.3279 -0.7470
vn -0.3106 0.1938 -0.9306
vn -0.3021 -0.4352 -0.8481
vn -0.9254 0.2655 -0.2704
vn -0.9625 0.1769 0.2056
vn -0.9822 -0.1552 0.1055
vn -0.9356 -0.2644 -0.2341
vn -0.3329 0.4092 0.8495
vn -0.3773 -0.0458 0.9249
vn -0.2546 0.3472 0.9026
vn -0.4253 -0.9047 -0.0270
vn -0.3694 0.9068 0.2030
vn -0.2974 0.8358 -0.4615
vn -0.9744 0.1889 -0.1222
vn -0.5783 0.3279 -0.7470
vn 0.1895 -0.9819 -0.0000
vt 0.157192 0.732434
vt 0.377567 0.781847
vt 0.189781 0.734631
vt 0.112440 0.022707
vt 0.377567 0.749590
vt 0.157449 0.770503
vt 0.122597 0.734881
vt 0.189781 0.738717
vt 0.345912 0.785105
vt 0.548161 0.641999
vt 0.713020 0.793825
vt 0.144673 0.701568
vt 0.972554 0.494716
vt 0.123204 0.701599
vt 0.190271 0.779062
vt 0.716869 0.772269
vt 0.203574 0.704356
vt 0.136665 0.768538
vt 0.352254 0.762130
vt 0.948533 0.484884
vt 0.125396 0.055149
vt 0.098060 0.000255
vt 0.183981 0.763285
vt 0.138038 0.071995
vt 0.941684 0.507227
vt 0.964344 0.509171
vt 0.554534 0.628904
vt 0.090026 0.034695
vt 0.089773 0.757345
vt 0.367950 0.820496
vt 0.217280 0.745115
vt 0.740958 0.793834
vt 0.528325 0.621222
vt 0.341434 0.782650
vt 0.159341 0.790498
vt 0.091934 0.701568
vt 0.122597 0.714543
vt 0.189781 0.777554
vt 0.078107 0.000000
vt 0.067973 0.041725
vt 0.122597 0.755789
vt 0.101001 0.057980
vt 0.979187 0.000000
vt 0.089306 0.718025
vt 0.055460 0.756406
vt 0.248059 0.748397
vt 0.500069 0.623102
vt 0.078561 0.792065
vt 0.367950 0.785105
vt 0.314888 0.782373
vt 0.939410 0.022195
vt 0.131050 0.785531
vt 0.225891 0.701568
vt 0.063916 0.707662
vt 0.341434 0.813409
vt 0.740958 0.763079
vt 0.210541 0.792933
vt 0.057327 0.793135
vt 0.235970 0.786653
vt 0.318766 0.803976
vt 0.248059 0.711745
vt 0.068858 0.721392
vt 0.086044 0.071979
vt 0.103429 0.784619
vt 0.345912 0.794561
vt 0.963106 0.011596
vt 0.065261 0.014283
vt 0.116331 0.726556
vt 0.110441 0.085230
vt 0.970679 0.033977
vt 0.086724 0.093941
vt 0.502339 0.608395
vt 0.948222 0.036900
vt 0.531976 0.612582
s 1
usemtl Material.007
f 12/28/1 17/39/1 9/22/1
f 2/4/2 8/21/2 19/42/2
f 1/1/3 2/3/3 9/23/3
f 1/1/4 3/6/4 7/18/4
f 4/7/5 6/14/6 5/12/7
f 1/2/8 5/9/8 8/19/8
f 14/31/9 4/8/9 7/17/9
f 14/31/10 24/57/10 6/15/10
f 11/27/11 5/10/11 15/33/11
f 15/32/12 5/11/12 6/16/12
f 16/35/13 23/52/13 7/18/13
f 16/35/14 3/6/14 9/23/14
f 11/26/15 10/25/15 8/20/15
f 10/24/16 29/69/16 19/42/16
f 12/28/17 18/40/17 28/67/17
f 19/42/18 27/63/18 18/40/18
f 13/29/19 20/44/19 28/68/19
f 13/29/20 21/45/20 26/62/20
f 22/48/21 25/58/22 21/45/23
f 13/29/24 18/41/24 27/64/24
f 14/31/25 23/53/25 26/61/25
f 14/31/26 21/46/26 25/59/26
f 15/33/27 22/47/27 31/72/27
f 15/34/28 24/55/28 25/60/28
f 16/36/29 20/44/29 26/62/29
f 16/36/30 17/37/30 28/68/30
f 32/74/31 31/73/32 30/71/32
f 27/66/33 30/70/33 31/73/33
f 19/42/34 29/69/34 30/71/34
f 2/4/35 12/28/35 9/22/35
f 12/28/36 2/4/36 19/42/36
f 3/6/37 1/1/37 9/23/37
f 4/7/38 1/1/38 7/18/38
f 1/1/39 4/7/5 5/12/7
f 2/5/40 1/2/40 8/19/40
f 23/53/41 14/31/41 7/17/41
f 4/8/42 14/31/42 6/15/42
f 32/74/43 11/27/43 15/33/43
f 24/56/44 15/32/44 6/16/44
f 3/6/45 16/35/45 7/18/45
f 17/38/46 16/35/46 9/23/46
f 5/13/47 11/26/47 8/20/47
f 8/21/48 10/24/48 19/42/48
f 17/39/49 12/28/49 28/67/49
f 12/28/50 19/42/50 18/40/50
f 18/41/51 13/29/51 28/68/51
f 20/44/52 13/29/52 26/62/52
f 13/29/53 22/48/21 21/45/23
f 22/49/54 13/30/54 27/65/54
f 21/46/55 14/31/55 26/61/55
f 24/57/56 14/31/56 25/59/56
f 32/74/57 15/33/57 31/72/57
f 22/50/58 15/34/58 25/60/58
f 23/54/59 16/36/59 26/62/59
f 20/44/60 16/36/60 28/68/60
f 22/51/61 27/66/61 31/73/61
f 27/66/62 19/43/62 30/70/62
f 30/71/32 29/69/31 32/74/31
f 29/69/31 10/25/63 32/74/31
f 10/25/63 11/27/63 32/74/31
