# Blender 3.3.1
# www.blender.org
mtllib enemy2LeftLeg.mtl
o Cube.006
v 0.009561 -0.058064 -0.028356
v 0.020982 -0.046929 -0.258184
v 0.172802 0.084030 -0.212141
v 0.172802 0.078343 -0.076000
v 0.025434 -0.156205 -0.072602
v 0.025434 -0.156205 -0.192902
v 0.196209 -0.074349 -0.192079
v 0.195036 -0.079323 -0.076938
v 0.096892 0.018550 -0.246528
v 0.096892 0.004572 -0.033352
v 0.114933 -0.113735 -0.237648
v 0.114346 -0.116222 -0.029612
v 0.052965 -0.307099 -0.101274
v 0.052965 -0.307099 -0.196751
v 0.195586 -0.259943 -0.196098
v 0.194160 -0.263738 -0.104713
v 0.127666 -0.282723 -0.232243
v 0.126953 -0.284621 -0.067175
v 0.055323 -0.411764 -0.132669
v 0.055323 -0.411764 -0.216298
v 0.174322 -0.432280 -0.215644
v 0.171370 -0.435059 -0.136108
v 0.109480 -0.421772 -0.251790
v 0.108004 -0.423161 -0.098570
v 0.081556 -0.539151 -0.183640
v 0.081556 -0.539151 -0.254909
v 0.192261 -0.527122 -0.254307
v 0.190349 -0.530335 -0.186812
v 0.132109 -0.534271 -0.287639
v 0.131154 -0.535878 -0.152195
v 0.089531 -0.635380 -0.195231
v 0.089531 -0.635380 -0.268303
v 0.216802 -0.621551 -0.267610
v 0.214604 -0.625245 -0.198877
v 0.147649 -0.629770 -0.305930
v 0.146550 -0.631617 -0.159081
v 0.122324 -0.770404 -0.191687
v 0.122324 -0.770404 -0.237512
v 0.202604 -0.769566 -0.237077
v 0.201007 -0.771737 -0.193973
v 0.158941 -0.770461 -0.261109
v 0.158142 -0.771546 -0.169016
v 0.114668 -0.875453 -0.165097
v 0.114668 -0.875453 -0.210923
v 0.188781 -0.874615 -0.210488
v 0.187184 -0.876786 -0.167384
v 0.158480 -0.875510 -0.234520
v 0.157681 -0.876596 -0.142426
v 0.121421 -0.972078 -0.141010
v 0.121421 -0.972078 -0.186835
v 0.216218 -0.971240 -0.186400
v 0.214620 -0.973411 -0.143296
v 0.158037 -0.976299 -0.222423
v 0.157238 -0.973221 -0.118339
v 0.157681 -0.942548 0.022951
v 0.125922 -0.941406 0.019796
v 0.187184 -0.942739 -0.021156
v 0.161932 -0.977385 0.048496
v 0.121421 -0.976242 0.044415
v 0.207610 -0.977575 0.002931
v 0.118044 -0.938695 -0.217722
v 0.111594 -0.938695 -0.153054
v 0.204033 -0.940028 -0.155340
v 0.205630 -0.937857 -0.217288
v 0.158259 -0.938753 -0.241319
v 0.111594 -0.958824 0.032371
v 0.204033 -0.960157 -0.000335
v 0.160288 -0.959967 0.044797
vn -0.2285 -0.4306 0.8731
vn -0.3453 -0.2346 0.9087
vn -0.3468 -0.2358 0.9078
vn -0.3395 -0.2298 0.9121
vn -0.9960 -0.0722 -0.0530
vn 0.4458 -0.0474 -0.8939
vn 0.9900 0.1402 0.0152
vn 0.9901 0.1395 0.0161
vn 0.9892 0.1465 0.0067
vn 0.1857 -0.0406 -0.9818
vn 0.5171 -0.1493 0.8428
vn 0.4709 0.0952 0.8771
vn 0.9910 -0.1336 0.0099
vn -0.9997 -0.0225 -0.0000
vn -0.9838 -0.1795 -0.0000
vn 0.9999 -0.0041 0.0146
vn 0.9999 -0.0062 0.0099
vn 0.9999 -0.0059 0.0107
vn 0.4862 0.0078 -0.8738
vn 0.4826 0.0173 -0.8757
vn -0.4159 -0.0538 -0.9078
vn -0.4231 -0.0608 -0.9040
vn -0.4221 -0.0598 -0.9046
vn 0.9844 0.1718 0.0370
vn 0.9839 0.1733 0.0426
vn 0.9840 0.1732 0.0419
vn -0.9794 -0.2017 -0.0000
vn 0.4577 0.0442 -0.8880
vn -0.4700 0.1829 -0.8635
vn 0.4568 -0.2556 0.8521
vn -0.5636 -0.2489 0.7876
vn 0.9685 0.2450 0.0433
vn 0.9693 0.2428 0.0390
vn 0.9692 0.2430 0.0396
vn -0.9966 -0.0826 -0.0000
vn 0.4044 0.4098 -0.8176
vn -0.5474 0.1521 -0.8229
vn 0.4408 -0.3102 0.8423
vn -0.4690 -0.4097 0.7824
vn 0.9954 -0.0910 0.0311
vn 0.9953 -0.0913 0.0323
vn 0.9955 -0.0902 0.0280
vn -0.9718 -0.2360 -0.0000
vn 0.4490 0.2380 -0.8613
vn -0.5469 0.0708 -0.8342
vn 0.5034 0.0188 0.8638
vn -0.5230 -0.1445 0.8400
vn 0.9920 -0.1228 0.0306
vn -0.9974 0.0727 -0.0000
vn 0.4737 -0.2213 -0.8524
vn 0.4739 -0.2187 -0.8530
vn 0.4737 -0.2212 -0.8524
vn -0.4980 -0.2993 -0.8139
vn 0.5037 -0.0193 0.8637
vn 0.5030 -0.0197 0.8641
vn 0.5054 -0.0184 0.8627
vn -0.5327 -0.1043 0.8398
vn -0.5274 -0.1060 0.8430
vn -0.5288 -0.1056 0.8422
vn 0.9473 0.3170 0.0460
vn 0.9466 0.3183 0.0502
vn 0.9465 0.3186 0.0511
vn -0.9771 -0.1890 -0.0975
vn 0.6033 -0.2694 -0.7507
vn -0.5303 -0.2058 -0.8224
vn 0.6352 0.1869 0.7494
vn -0.5128 0.2456 0.8226
vn -0.0319 -0.9995 -0.0000
vn -0.0256 -0.9984 -0.0512
vn 0.4855 -0.5058 -0.7131
vn -0.4652 -0.3958 -0.7918
vn 0.9525 0.2776 0.1252
vn -0.8676 -0.4972 -0.0112
vn 0.6906 0.2120 0.6914
vn -0.2072 0.4746 0.8555
vn -0.1547 0.9275 0.3403
vn -0.0252 -0.9994 -0.0247
vn -0.0160 -0.9994 -0.0292
vn -0.0188 -0.9994 -0.0281
vn -0.0281 -0.9993 -0.0241
vn -0.0197 -0.9995 -0.0229
vn 0.4885 0.8105 0.3232
vn -0.1700 0.6649 0.7273
vn 0.5148 0.6992 0.4961
vn -0.7441 0.6641 0.0721
vn 0.9481 0.3155 0.0410
vn -0.5037 0.0941 -0.8587
vn 0.4391 0.2109 -0.8734
vn -0.9986 -0.0533 -0.0000
vn 0.9641 0.2633 0.0341
vn 0.0317 0.0355 0.9989
vn -0.3384 -0.2289 0.9127
vn -0.9872 -0.1597 -0.0000
vn 0.4862 0.0077 -0.8738
vn 0.9891 0.1470 0.0061
vn -0.1787 -0.5100 -0.8414
vn 0.5445 -0.1274 0.8290
vn 0.4459 0.0576 0.8932
vn 0.9915 -0.1260 0.0324
vn 0.9999 -0.0037 0.0154
vn 0.4680 0.0070 -0.8837
vn -0.4145 -0.0525 -0.9085
vn 0.9845 0.1715 0.0360
vn 0.4932 0.0575 -0.8680
vn -0.5231 0.1466 -0.8396
vn -0.5234 0.1450 -0.8396
vn -0.5234 0.1453 -0.8396
vn 0.5270 -0.2205 0.8208
vn -0.3739 -0.1560 0.9142
vn 0.9684 0.2455 0.0442
vn 0.4986 0.3526 -0.7919
vn -0.5231 0.1467 -0.8396
vn 0.4997 -0.3273 0.8020
vn -0.5521 -0.4479 0.7032
vn 0.9956 -0.0899 0.0270
vn 0.4925 -0.2280 -0.8399
vn -0.5158 -0.3076 -0.7996
vn 0.5060 -0.0181 0.8624
vn -0.5343 -0.1038 0.8389
vn 0.9425 0.3322 0.0360
vn -0.9593 -0.2824 -0.0000
vn 0.4740 -0.2180 -0.8531
vn -0.4662 -0.1850 -0.8651
vn 0.4979 0.1506 0.8540
vn -0.4501 0.2210 0.8652
vn -0.0868 -0.9958 0.0288
vn 0.0681 -0.9972 0.0300
vn 0.4188 -0.4102 -0.8102
vn -0.6041 -0.5733 -0.5536
vn 0.6547 0.7496 0.0973
vn -0.9557 -0.2928 -0.0318
vn 0.6924 0.2679 0.6700
vn -0.0927 0.1985 0.9757
vn -0.0034 0.9289 0.3704
vn -0.0177 -0.9996 -0.0224
vn 0.3334 0.8594 0.3876
vn -0.0341 0.7795 0.6255
vn 0.4700 0.8261 0.3108
vn -0.9944 0.0642 0.0834
vn 0.9762 0.2104 0.0528
vn -0.4730 0.0692 -0.8783
vn 0.6178 0.0819 -0.7821
vn -0.9946 0.0295 -0.0992
vn 0.9664 0.2523 0.0485
vn -0.6357 0.7712 0.0317
vn -0.6729 0.7387 0.0393
vn -0.6627 0.7476 0.0446
vn -0.6609 0.7498 0.0313
vn -0.6352 0.7714 0.0378
vn -0.5824 0.8128 0.0104
vt 0.412477 0.641999
vt 0.642091 0.337073
vt 0.217477 0.345322
vt 0.499283 0.642608
vt 0.857103 0.116339
vt 0.256406 0.280907
vt 0.678397 0.409077
vt 0.908274 0.120194
vt 0.657643 0.306583
vt 0.428640 0.677068
vt 0.473713 0.680120
vt 0.239086 0.386127
vt 0.287045 0.333013
vt 0.861216 0.174196
vt 0.904469 0.177316
vt 0.706627 0.356955
vt 0.235950 0.312422
vt 0.664141 0.371188
vt 0.260335 0.355684
vt 0.686195 0.331142
vt 0.438900 0.729664
vt 0.685109 0.258623
vt 0.474672 0.732087
vt 0.268071 0.433602
vt 0.855171 0.236916
vt 0.310911 0.396515
vt 0.889495 0.239258
vt 0.728585 0.293323
vt 0.287426 0.412103
vt 0.710168 0.275345
vt 0.697591 0.223500
vt 0.449505 0.768175
vt 0.808631 0.743689
vt 0.480838 0.770298
vt 0.280953 0.467962
vt 0.843238 0.291474
vt 0.324588 0.457556
vt 0.873095 0.293048
vt 0.740956 0.231407
vt 0.297777 0.461274
vt 0.719615 0.225434
vt 0.792286 0.757921
vt 0.468341 0.812947
vt 0.720150 0.184448
vt 0.495043 0.814756
vt 0.303364 0.505446
vt 0.339861 0.485092
vt 0.826671 0.326058
vt 0.851997 0.327783
vt 0.756817 0.202593
vt 0.317232 0.494350
vt 0.808631 0.798360
vt 0.739020 0.191198
vt 0.734735 0.152291
vt 0.471905 0.847313
vt 0.405063 0.747742
vt 0.499283 0.849168
vt 0.377567 0.747742
vt 0.317602 0.536462
vt 0.819785 0.361966
vt 0.359561 0.513063
vt 0.845561 0.363823
vt 0.776890 0.173151
vt 0.333545 0.523706
vt 0.756429 0.160051
vt 0.403967 0.701568
vt 0.770637 0.749634
vt 0.763989 0.109376
vt 0.759896 0.763079
vt 0.386724 0.701568
vt 0.349327 0.579832
vt 0.827441 0.410173
vt 0.376832 0.567777
vt 0.843606 0.411252
vt 0.791512 0.119799
vt 0.359854 0.573034
vt 0.778070 0.113024
vt 0.776648 0.070521
vt 0.745854 0.718307
vt 0.735113 0.731753
vt 0.362845 0.618608
vt 0.388231 0.607458
vt 0.834664 0.443831
vt 0.802016 0.080097
vt 0.850829 0.444909
vt 0.375844 0.610752
vt 0.793244 0.075157
vt 0.859726 0.440267
vt 0.810358 0.659240
vt 0.771612 0.674141
vt 0.713020 0.704419
vt 0.770637 0.656936
vt 0.810589 0.641999
vt 0.305546 0.809899
vt 0.412477 0.638037
vt 0.841868 0.481496
vt 0.798561 0.653219
vt 0.798493 0.669431
vt 0.858032 0.482575
vt 0.779577 0.641999
vt 0.390015 0.646124
vt 0.294139 0.821550
vt 0.298238 0.782531
vt 0.782293 0.681162
vt 0.812169 0.045723
vt 0.920448 0.464954
vt 0.800726 0.041884
vt 0.770637 0.650888
vt 0.904334 0.469326
vt 0.929301 0.477829
vt 0.819785 0.033129
vt 0.786222 0.743538
vt 0.810589 0.728920
vt 0.805226 0.028123
vt 0.774564 0.743689
vt 0.798561 0.724551
vt 0.912920 0.484884
vt 0.314888 0.821550
vt 0.371737 0.639388
vt 0.715304 0.720379
vt 0.798561 0.655104
vt 0.730093 0.700764
vt 0.854122 0.469324
vt 0.401751 0.626260
vt 0.830855 0.467978
vt 0.383500 0.632061
vt 0.798773 0.033335
vt 0.767694 0.641998
vt 0.803273 0.724451
vt 0.912050 0.478339
vt 0.928303 0.471601
vt 0.816712 0.039144
s 1
usemtl Material.010
f 1/2/1 5/9/1 12/20/1
f 5/9/2 13/22/3 18/30/4
f 1/1/5 2/4/5 6/11/5
f 9/17/6 3/6/6 7/13/6
f 4/8/7 8/15/8 7/14/9
f 2/3/10 9/17/10 11/19/10
f 12/20/11 18/30/11 16/28/11
f 10/18/12 12/20/12 8/16/12
f 15/25/13 16/27/13 22/38/13
f 14/23/14 20/34/14 19/32/14
f 6/11/15 14/23/15 13/21/15
f 7/14/16 8/15/17 16/27/18
f 11/19/19 7/13/19 15/26/20
f 6/12/21 11/19/22 17/29/23
f 21/36/24 22/38/25 28/49/26
f 20/34/27 26/45/27 25/43/27
f 17/29/28 15/26/28 21/37/28
f 14/24/29 17/29/29 23/40/29
f 18/30/30 24/41/30 22/39/30
f 13/22/31 19/31/31 24/41/31
f 27/48/32 28/49/33 34/62/34
f 26/45/35 32/57/35 31/55/35
f 21/37/36 27/47/36 29/51/36
f 23/40/37 29/51/37 26/46/37
f 22/39/38 24/41/38 30/53/38
f 19/31/39 25/44/39 30/53/39
f 34/62/40 40/74/41 39/72/42
f 31/56/43 32/58/43 38/70/43
f 29/51/44 27/47/44 33/61/44
f 29/51/45 35/64/45 32/59/45
f 28/50/46 30/53/46 36/65/46
f 25/44/47 31/54/47 36/65/47
f 40/74/48 46/85/48 45/83/48
f 37/67/49 38/69/49 44/80/49
f 33/61/50 39/73/51 41/76/52
f 32/59/53 35/64/53 41/76/53
f 36/65/54 42/77/55 40/75/56
f 36/65/57 31/54/58 37/68/59
f 63/123/60 52/99/61 51/96/62
f 62/122/63 61/120/63 50/91/63
f 39/73/64 45/82/64 47/86/64
f 38/71/65 41/76/65 47/86/65
f 42/77/66 48/87/66 46/84/66
f 42/77/67 37/68/67 43/78/67
f 54/104/68 49/90/68 50/92/68
f 51/97/69 52/98/69 54/104/69
f 64/124/70 51/95/70 53/101/70
f 61/119/71 65/126/71 53/101/71
f 63/123/72 46/85/72 57/109/72
f 49/89/73 59/113/73 66/129/73
f 68/131/74 58/110/74 60/117/74
f 68/132/75 66/127/75 59/114/75
f 48/87/76 43/78/76 56/107/76
f 54/104/77 52/98/78 60/116/79
f 54/104/77 58/112/80 59/115/81
f 48/88/82 55/106/82 57/109/82
f 56/107/83 66/127/83 68/132/83
f 55/106/84 68/131/84 67/130/84
f 62/122/85 66/128/85 56/108/85
f 52/99/61 63/123/60 67/130/86
f 47/86/87 65/126/87 61/119/87
f 45/82/88 64/124/88 65/126/88
f 43/79/89 44/80/89 61/120/89
f 46/85/90 63/123/90 64/125/90
f 10/18/91 1/2/91 12/20/91
f 12/20/92 5/9/2 18/30/4
f 5/10/93 1/1/93 6/11/93
f 11/19/19 9/17/94 7/13/19
f 3/5/95 4/8/7 7/14/9
f 6/12/96 2/3/96 11/19/96
f 8/16/97 12/20/97 16/28/97
f 4/7/98 10/18/98 8/16/98
f 21/36/99 15/25/99 22/38/99
f 13/21/14 14/23/14 19/32/14
f 5/10/15 6/11/15 13/21/15
f 15/25/100 7/14/16 16/27/18
f 17/29/101 11/19/101 15/26/101
f 14/24/102 6/12/21 17/29/23
f 27/48/103 21/36/24 28/49/26
f 19/32/27 20/34/27 25/43/27
f 23/40/104 17/29/104 21/37/104
f 20/35/105 14/24/106 23/40/107
f 16/28/108 18/30/108 22/39/108
f 18/30/109 13/22/109 24/41/109
f 33/60/110 27/48/32 34/62/34
f 25/43/35 26/45/35 31/55/35
f 23/40/111 21/37/111 29/51/111
f 20/35/105 23/40/107 26/46/112
f 28/50/113 22/39/113 30/53/113
f 24/42/114 19/33/114 30/52/114
f 33/60/115 34/62/40 39/72/42
f 37/66/43 31/56/43 38/70/43
f 35/64/44 29/51/44 33/61/44
f 26/46/45 29/51/45 32/59/45
f 34/63/46 28/50/46 36/65/46
f 30/53/47 25/44/47 36/65/47
f 39/72/48 40/74/48 45/83/48
f 43/79/49 37/67/49 44/80/49
f 35/64/116 33/61/116 41/76/116
f 38/71/117 32/59/117 41/76/117
f 34/63/118 36/65/54 40/75/56
f 42/77/119 36/65/57 37/68/59
f 64/125/120 63/123/120 51/96/120
f 49/89/121 62/121/121 50/93/121
f 41/76/52 39/73/51 47/86/122
f 44/81/123 38/71/123 47/86/123
f 40/75/124 42/77/124 46/84/124
f 48/87/125 42/77/125 43/78/125
f 53/102/126 54/103/126 50/94/126
f 53/100/127 51/97/127 54/104/127
f 65/126/128 64/124/128 53/101/128
f 50/94/129 61/118/129 53/102/129
f 67/130/130 63/123/130 57/109/130
f 62/121/131 49/89/131 66/129/131
f 67/130/132 68/131/132 60/117/132
f 58/111/133 68/132/133 59/114/133
f 55/105/134 48/87/134 56/107/134
f 58/112/80 54/104/77 60/116/79
f 49/90/135 54/104/77 59/115/81
f 46/85/136 48/88/136 57/109/136
f 55/105/137 56/107/137 68/132/137
f 57/109/138 55/106/138 67/130/138
f 43/79/139 62/122/139 56/108/139
f 60/117/140 52/99/140 67/130/140
f 44/81/141 47/86/141 61/119/141
f 47/86/142 45/82/142 65/126/142
f 62/122/143 43/79/143 61/120/143
f 45/83/144 46/85/144 64/125/144
f 10/18/145 4/8/146 9/17/147
f 3/6/148 9/17/147 4/8/146
f 9/17/147 2/4/149 10/18/145
f 2/4/149 1/2/150 10/18/145
